<svg xmlns="http://www.w3.org/2000/svg" xmlns:xlink="http://www.w3.org/1999/xlink" version="1.1" x="0px" y="0px" viewBox="0 0 100 125" enable-background="new 0 0 100 100" xml:space="preserve"><ellipse cx="50.767" cy="21.339" rx="35.767" ry="14.923"/><path d="M86.533,36.736c0,8.243-16.012,14.922-35.766,14.922C31.012,51.658,15,45.926,15,37.683c0-0.313,0.028-0.635,0.085-0.947  c0.199-1.403,0.871-2.758,1.951-4.027c1.563,1.856,3.989,2.596,7.078,4.027c6.547,3.05,16.06,4.974,26.653,4.974  c10.592,0,20.104-1.923,26.651-4.974c3.089-1.431,5.515-3.118,7.077-4.975C85.814,33.315,86.533,34.992,86.533,36.736z"/><path d="M24.115,36.736H15v-9.001c0,1.743,0.72,3.42,2.037,4.975C18.6,34.565,21.026,35.305,24.115,36.736z"/><path d="M86.533,26.787v9.949h-9.114c3.089-1.431,5.515-3.118,7.077-4.975C85.814,30.208,86.533,28.53,86.533,26.787z"/><path d="M86.533,50.947c0,8.242-16.012,14.922-35.766,14.922C31.012,65.869,15,59.189,15,50.947c0-1.743,0.72-3.42,2.037-4.974  c1.563,1.857,3.989,3.544,7.078,4.974c6.547,3.051,16.06,4.975,26.653,4.975c10.592,0,20.104-1.924,26.651-4.975  c3.089-1.43,5.515-3.117,7.077-4.974C85.814,47.527,86.533,49.204,86.533,50.947z"/><path d="M24.115,50.947H15v-9.948c0,1.743,0.72,3.42,2.037,4.974C18.6,47.83,21.026,49.517,24.115,50.947z"/><path d="M86.533,40.999v9.948h-9.114c3.089-1.43,5.515-3.117,7.077-4.974C85.814,44.419,86.533,42.742,86.533,40.999z"/><path d="M86.533,65.158c0,8.244-16.012,14.924-35.766,14.924C31.012,80.082,15,73.402,15,65.158c0-1.742,0.72-3.418,2.037-4.973  c1.563,1.857,3.989,3.543,7.078,4.973c6.547,3.053,16.06,4.977,26.653,4.977c10.592,0,20.104-1.924,26.651-4.977  c3.089-1.43,5.515-3.115,7.077-4.973C85.814,61.74,86.533,63.416,86.533,65.158z"/><path d="M24.115,65.158H15v-9.947c0,1.742,0.72,3.422,2.037,4.975C18.6,62.043,21.026,63.729,24.115,65.158z"/><path d="M86.533,55.211v9.947h-9.114c3.089-1.43,5.515-3.115,7.077-4.973C85.814,58.631,86.533,56.953,86.533,55.211z"/><path d="M86.533,78.66c0,8.244-16.012,14.924-35.766,14.924C31.012,93.584,15,86.904,15,78.66c0-1.742,0.72-3.418,2.037-4.975  c1.563,1.857,3.989,3.545,7.078,4.975c6.547,3.051,16.06,4.975,26.653,4.975c10.592,0,20.104-1.924,26.651-4.975  c3.089-1.43,5.515-3.117,7.077-4.975C85.814,75.242,86.533,76.918,86.533,78.66z"/><path d="M24.115,78.66H15v-9.947c0,1.742,0.72,3.42,2.037,4.973C18.6,75.543,21.026,77.23,24.115,78.66z"/><path d="M86.533,68.713v9.947h-9.114c3.089-1.43,5.515-3.117,7.077-4.975C85.814,72.133,86.533,70.455,86.533,68.713z"/><text x="0" y="115" fill="#000000" font-size="5px" font-weight="bold" font-family="'Helvetica Neue', Helvetica, Arial-Unicode, Arial, Sans-serif">Created by Ahmed Elzahra</text><text x="0" y="120" fill="#000000" font-size="5px" font-weight="bold" font-family="'Helvetica Neue', Helvetica, Arial-Unicode, Arial, Sans-serif">from the Noun Project</text></svg>